<svg width="47" height="52" viewBox="0 0 47 52" fill="none" xmlns="http://www.w3.org/2000/svg">
<path d="M18.2778 41.6C18.9703 41.6 19.6344 41.3261 20.1241 40.8385C20.6138 40.3509 20.8889 39.6896 20.8889 39V23.4C20.8889 22.7104 20.6138 22.0491 20.1241 21.5615C19.6344 21.0739 18.9703 20.8 18.2778 20.8C17.5853 20.8 16.9211 21.0739 16.4314 21.5615C15.9418 22.0491 15.6667 22.7104 15.6667 23.4V39C15.6667 39.6896 15.9418 40.3509 16.4314 40.8385C16.9211 41.3261 17.5853 41.6 18.2778 41.6ZM44.3889 10.4H33.9444V7.8C33.9444 5.73131 33.1192 3.74735 31.6501 2.28457C30.1811 0.821784 28.1886 0 26.1111 0H20.8889C18.8114 0 16.8189 0.821784 15.3499 2.28457C13.8808 3.74735 13.0556 5.73131 13.0556 7.8V10.4H2.61111C1.9186 10.4 1.25445 10.6739 0.764777 11.1615C0.275098 11.6491 0 12.3104 0 13C0 13.6896 0.275098 14.3509 0.764777 14.8385C1.25445 15.3261 1.9186 15.6 2.61111 15.6H5.22222V44.2C5.22222 46.2687 6.04752 48.2526 7.51655 49.7154C8.98559 51.1782 10.978 52 13.0556 52H33.9444C36.022 52 38.0144 51.1782 39.4834 49.7154C40.9525 48.2526 41.7778 46.2687 41.7778 44.2V15.6H44.3889C45.0814 15.6 45.7455 15.3261 46.2352 14.8385C46.7249 14.3509 47 13.6896 47 13C47 12.3104 46.7249 11.6491 46.2352 11.1615C45.7455 10.6739 45.0814 10.4 44.3889 10.4ZM18.2778 7.8C18.2778 7.11044 18.5529 6.44912 19.0426 5.96152C19.5322 5.47393 20.1964 5.2 20.8889 5.2H26.1111C26.8036 5.2 27.4678 5.47393 27.9574 5.96152C28.4471 6.44912 28.7222 7.11044 28.7222 7.8V10.4H18.2778V7.8ZM36.5556 44.2C36.5556 44.8896 36.2805 45.5509 35.7908 46.0385C35.3011 46.5261 34.637 46.8 33.9444 46.8H13.0556C12.363 46.8 11.6989 46.5261 11.2092 46.0385C10.7195 45.5509 10.4444 44.8896 10.4444 44.2V15.6H36.5556V44.2ZM28.7222 41.6C29.4147 41.6 30.0789 41.3261 30.5686 40.8385C31.0582 40.3509 31.3333 39.6896 31.3333 39V23.4C31.3333 22.7104 31.0582 22.0491 30.5686 21.5615C30.0789 21.0739 29.4147 20.8 28.7222 20.8C28.0297 20.8 27.3656 21.0739 26.8759 21.5615C26.3862 22.0491 26.1111 22.7104 26.1111 23.4V39C26.1111 39.6896 26.3862 40.3509 26.8759 40.8385C27.3656 41.3261 28.0297 41.6 28.7222 41.6Z" fill="#353535"/>
</svg>
