<svg width="35" height="35" viewBox="0 0 35 35" fill="none" xmlns="http://www.w3.org/2000/svg">
<path d="M35 9.16934C35.0013 8.93905 34.9572 8.71076 34.8701 8.49756C34.783 8.28436 34.6547 8.09045 34.4925 7.92694L27.0725 0.507491C26.909 0.345311 26.715 0.217001 26.5018 0.12992C26.2886 0.0428383 26.0603 -0.00130222 25.83 2.92478e-05C25.5997 -0.00130222 25.3714 0.0428383 25.1581 0.12992C24.9449 0.217001 24.751 0.345311 24.5875 0.507491L19.635 5.45962L0.507528 24.5857C0.345336 24.7492 0.217017 24.9431 0.129929 25.1563C0.0428415 25.3695 -0.00130231 25.5978 2.925e-05 25.8281V33.2475C2.925e-05 33.7116 0.184403 34.1567 0.512591 34.4849C0.84078 34.8131 1.2859 34.9974 1.75003 34.9974H9.17001C9.41489 35.0107 9.65983 34.9724 9.88895 34.885C10.1181 34.7976 10.3263 34.663 10.5 34.49L29.5225 15.3639L34.4925 10.4992C34.6522 10.3296 34.7823 10.1345 34.8775 9.92179C34.8943 9.78231 34.8943 9.6413 34.8775 9.50182C34.8857 9.42036 34.8857 9.33829 34.8775 9.25684L35 9.16934ZM8.45251 31.4977H3.50002V26.5455L20.8775 9.16934L25.83 14.1215L8.45251 31.4977ZM28.2975 11.6542L23.345 6.70203L25.83 4.23471L30.765 9.16934L28.2975 11.6542Z" fill="#353535"/>
</svg>
